<svg width="1080" height="350" viewBox="0 0 1080 350" fill="none" xmlns="http://www.w3.org/2000/svg">
<g clip-path="url(#clip0_1_2)">
<path d="M772.461 149.398H759.706L770.252 116.82H796.191C800.56 116.82 804.102 113.174 804.102 108.676C804.102 104.178 800.56 100.531 796.191 100.531C789.133 100.531 740.194 100.531 732.91 100.531C728.542 100.531 725 104.178 725 108.676C725 113.174 728.542 116.82 732.91 116.82H753.576L743.029 149.398H709.18C691.733 149.398 677.539 164.013 677.539 181.977H676.184C668.205 181.977 661.719 175.298 661.719 167.083C661.719 163.108 663.222 159.367 665.953 156.555C670.218 152.163 673.384 146.945 675.321 141.254H685.449C698.534 141.254 709.18 130.293 709.18 116.82V58.7227C709.18 36.2682 691.437 18 669.629 18C665.26 18 661.719 21.6466 661.719 26.1445V127.761C661.719 134.288 659.251 140.423 654.768 145.038C649.047 150.924 645.898 158.754 645.898 167.083C645.898 184.279 659.483 198.266 676.184 198.266H677.539V198.676C677.539 204.626 683.53 208.546 688.751 206.077C698.784 201.332 719.222 198.266 740.82 198.266C762.419 198.266 782.857 201.332 792.889 206.077C798.116 208.549 804.102 204.611 804.102 198.677V181.977C804.102 164.013 789.908 149.398 772.461 149.398Z" fill="#54C484"/>
<path d="M798.365 263.735L748.73 249.134V230.844H756.641C761.007 230.844 764.551 227.195 764.551 222.699V215.912C757.695 215.081 749.664 214.555 740.82 214.555C731.977 214.555 723.945 215.081 717.09 215.912V222.699C717.09 227.195 720.634 230.844 725 230.844H732.91V249.134L683.276 263.736C679.88 264.734 677.539 267.93 677.539 271.566V287.855C677.539 292.353 681.081 296 685.449 296C689.818 296 693.359 292.353 693.359 287.855V277.71L732.91 266.074V287.855C732.91 292.353 736.452 296 740.82 296C745.189 296 748.73 292.353 748.73 287.855V266.075L788.281 277.71V287.855C788.281 292.353 791.823 296 796.191 296C800.56 296 804.102 292.353 804.102 287.855V271.566C804.102 267.93 801.761 264.734 798.365 263.735Z" fill="#54C484"/>
<path d="M218.812 296V155.375H221.344L243.281 208.812V296H218.812ZM218.812 114.594V99.125H238.781L303.469 255.781L349.594 151.438H352.406V206L312.75 296H294.188L218.812 114.594ZM366.469 296V99.125H390.938V296H366.469ZM414.281 296V99.125H516.656V123.312H438.75V185.75H490.219V210.219H438.75V271.812H516.656V296H414.281ZM539.156 296V99.125H641.531V123.312H563.625V185.75H615.094V210.219H563.625V271.812H641.531V296H539.156ZM831.094 296V272.094L907.031 123.312H831.094V99.125H934.031V122.469L858.094 271.25H934.312L934.031 296H831.094Z" fill="#54C484"/>
<path d="M205.441 277.226C205.441 280.124 204.937 282.728 203.929 285.038C202.879 287.306 201.451 289.091 199.645 290.393C197.797 291.695 195.676 292.367 193.282 292.409V286.298C195.34 286.088 197.083 285.248 198.511 283.778C199.897 282.266 200.59 280.082 200.59 277.226C200.59 274.496 199.918 272.354 198.574 270.8C197.188 269.204 195.424 268.406 193.282 268.406C191.602 268.406 190.237 268.868 189.187 269.792C188.137 270.716 187.339 271.871 186.793 273.257C186.247 274.643 185.659 276.512 185.029 278.864C184.273 281.762 183.517 284.093 182.761 285.857C182.005 287.579 180.829 289.07 179.233 290.33C177.595 291.548 175.411 292.157 172.681 292.157C170.287 292.157 168.166 291.548 166.318 290.33C164.47 289.112 163.042 287.411 162.034 285.227C161.026 283.001 160.522 280.46 160.522 277.604C160.522 273.488 161.551 270.128 163.609 267.524C165.667 264.878 168.397 263.387 171.799 263.051V269.351C170.119 269.561 168.649 270.443 167.389 271.997C166.087 273.551 165.436 275.609 165.436 278.171C165.436 280.565 166.066 282.518 167.326 284.03C168.544 285.542 170.266 286.298 172.492 286.298C174.088 286.298 175.39 285.857 176.398 284.975C177.406 284.051 178.183 282.938 178.729 281.636C179.233 280.292 179.821 278.423 180.493 276.029C181.291 273.131 182.089 270.8 182.887 269.036C183.643 267.272 184.84 265.76 186.478 264.5C188.074 263.24 190.258 262.61 193.03 262.61C195.172 262.61 197.188 263.177 199.078 264.311C200.968 265.445 202.501 267.125 203.677 269.351C204.853 271.577 205.441 274.202 205.441 277.226ZM161.089 248.44H205V254.173H161.089V248.44ZM173.815 205.406C171.253 206.624 169.279 208.388 167.893 210.698C166.465 213.008 165.751 215.696 165.751 218.762C165.751 221.828 166.465 224.6 167.893 227.078C169.279 229.514 171.295 231.446 173.941 232.874C176.545 234.26 179.569 234.953 183.013 234.953C186.457 234.953 189.481 234.26 192.085 232.874C194.689 231.446 196.705 229.514 198.133 227.078C199.519 224.6 200.212 221.828 200.212 218.762C200.212 214.478 198.931 210.95 196.369 208.178C193.807 205.406 190.342 203.789 185.974 203.327V220.841H181.312V197.216H185.722C189.334 197.552 192.652 198.686 195.676 200.618C198.658 202.55 201.031 205.091 202.795 208.241C204.517 211.391 205.378 214.898 205.378 218.762C205.378 222.836 204.433 226.553 202.543 229.913C200.611 233.273 197.944 235.94 194.542 237.914C191.14 239.846 187.297 240.812 183.013 240.812C178.729 240.812 174.886 239.846 171.484 237.914C168.04 235.94 165.373 233.273 163.483 229.913C161.551 226.553 160.585 222.836 160.585 218.762C160.585 214.1 161.74 209.984 164.05 206.414C166.36 202.802 169.615 200.177 173.815 198.539V205.406ZM161.404 145.094H205V150.827H172.492L205 165.317V169.349L172.429 183.902H205V189.635H161.404V183.461L197.44 167.333L161.404 151.205V145.094ZM195.235 109.416L195.235 128.568L205 132.096V138.144L161.341 122.268V115.653L205 99.8397V105.888L195.235 109.416ZM190.573 111.054L168.397 118.992L190.573 126.93L190.573 111.054Z" fill="#379683"/>
</g>
<defs>
<clipPath id="clip0_1_2">
<rect width="1080" height="350" fill="white"/>
</clipPath>
</defs>
</svg>
