<svg width="1080" height="350" viewBox="0 0 1080 350" fill="none" xmlns="http://www.w3.org/2000/svg">
<g clip-path="url(#clip0_1_2)">
<path d="M775.055 157.836H762.677L772.912 127.133H798.082C802.321 127.133 805.758 123.696 805.758 119.457C805.758 115.218 802.321 111.781 798.082 111.781C791.233 111.781 743.744 111.781 736.676 111.781C732.437 111.781 729 115.218 729 119.457C729 123.696 732.437 127.133 736.676 127.133H756.729L746.495 157.836H713.648C696.719 157.836 682.945 171.609 682.945 188.539H681.63C673.888 188.539 667.594 182.245 667.594 174.503C667.594 170.757 669.052 167.231 671.703 164.58C675.842 160.442 678.913 155.524 680.793 150.16H690.621C703.318 150.16 713.648 139.83 713.648 127.133V72.3789C713.648 51.2168 696.432 34 675.27 34C671.03 34 667.594 37.4367 667.594 41.6758V137.444C667.594 143.595 665.199 149.377 660.849 153.727C655.297 159.274 652.242 166.653 652.242 174.503C652.242 190.709 665.424 203.891 681.63 203.891H682.945V204.277C682.945 209.885 688.759 213.579 693.825 211.252C703.56 206.78 723.393 203.891 744.352 203.891C765.31 203.891 785.143 206.78 794.878 211.253C799.949 213.583 805.758 209.871 805.758 204.278V188.539C805.758 171.609 791.984 157.836 775.055 157.836V157.836Z" fill="white"/>
<path d="M800.191 265.592L752.027 251.832V234.594H759.703C763.94 234.594 767.379 231.155 767.379 226.918V220.521C760.727 219.739 752.933 219.242 744.352 219.242C735.77 219.242 727.977 219.739 721.324 220.521V226.918C721.324 231.155 724.763 234.594 729 234.594H736.676V251.832L688.512 265.593C685.217 266.534 682.945 269.546 682.945 272.973V288.324C682.945 292.563 686.382 296 690.621 296C694.86 296 698.297 292.563 698.297 288.324V278.762L736.676 267.797V288.324C736.676 292.563 740.112 296 744.352 296C748.591 296 752.027 292.563 752.027 288.324V267.797L790.406 278.763V288.324C790.406 292.563 793.843 296 798.082 296C802.321 296 805.758 292.563 805.758 288.324V272.973C805.758 269.546 803.486 266.534 800.191 265.592Z" fill="white"/>
<path d="M218.812 296V149.75H221.344L237.938 190.531V296H218.812ZM218.812 110.938V99.125H234.844L303.469 265.344L355.5 147.781H358.312V189.125L311.062 296H295.875L218.812 110.938ZM371.812 296V99.125H390.938V296H371.812ZM414.281 296V99.125H516.656V117.969H433.406V188.562H490.219V207.406H433.406V277.156H516.656V296H414.281ZM539.156 296V99.125H641.531V117.969H558.281V188.562H615.094V207.406H558.281V277.156H641.531V296H539.156ZM831.656 296V277.719L913.781 117.969H831.656V99.125H934.594V117.125L852.75 276.875H934.875L934.594 296H831.656Z" fill="white"/>
<path d="M205.441 277.226C205.441 280.124 204.937 282.728 203.929 285.038C202.879 287.306 201.451 289.091 199.645 290.393C197.797 291.695 195.676 292.367 193.282 292.409V286.298C195.34 286.088 197.083 285.248 198.511 283.778C199.897 282.266 200.59 280.082 200.59 277.226C200.59 274.496 199.918 272.354 198.574 270.8C197.188 269.204 195.424 268.406 193.282 268.406C191.602 268.406 190.237 268.868 189.187 269.792C188.137 270.716 187.339 271.871 186.793 273.257C186.247 274.643 185.659 276.512 185.029 278.864C184.273 281.762 183.517 284.093 182.761 285.857C182.005 287.579 180.829 289.07 179.233 290.33C177.595 291.548 175.411 292.157 172.681 292.157C170.287 292.157 168.166 291.548 166.318 290.33C164.47 289.112 163.042 287.411 162.034 285.227C161.026 283.001 160.522 280.46 160.522 277.604C160.522 273.488 161.551 270.128 163.609 267.524C165.667 264.878 168.397 263.387 171.799 263.051V269.351C170.119 269.561 168.649 270.443 167.389 271.997C166.087 273.551 165.436 275.609 165.436 278.171C165.436 280.565 166.066 282.518 167.326 284.03C168.544 285.542 170.266 286.298 172.492 286.298C174.088 286.298 175.39 285.857 176.398 284.975C177.406 284.051 178.183 282.938 178.729 281.636C179.233 280.292 179.821 278.423 180.493 276.029C181.291 273.131 182.089 270.8 182.887 269.036C183.643 267.272 184.84 265.76 186.478 264.5C188.074 263.24 190.258 262.61 193.03 262.61C195.172 262.61 197.188 263.177 199.078 264.311C200.968 265.445 202.501 267.125 203.677 269.351C204.853 271.577 205.441 274.202 205.441 277.226ZM161.089 248.44H205V254.173H161.089V248.44ZM173.815 205.406C171.253 206.624 169.279 208.388 167.893 210.698C166.465 213.008 165.751 215.696 165.751 218.762C165.751 221.828 166.465 224.6 167.893 227.078C169.279 229.514 171.295 231.446 173.941 232.874C176.545 234.26 179.569 234.953 183.013 234.953C186.457 234.953 189.481 234.26 192.085 232.874C194.689 231.446 196.705 229.514 198.133 227.078C199.519 224.6 200.212 221.828 200.212 218.762C200.212 214.478 198.931 210.95 196.369 208.178C193.807 205.406 190.342 203.789 185.974 203.327V220.841H181.312V197.216H185.722C189.334 197.552 192.652 198.686 195.676 200.618C198.658 202.55 201.031 205.091 202.795 208.241C204.517 211.391 205.378 214.898 205.378 218.762C205.378 222.836 204.433 226.553 202.543 229.913C200.611 233.273 197.944 235.94 194.542 237.914C191.14 239.846 187.297 240.812 183.013 240.812C178.729 240.812 174.886 239.846 171.484 237.914C168.04 235.94 165.373 233.273 163.483 229.913C161.551 226.553 160.585 222.836 160.585 218.762C160.585 214.1 161.74 209.984 164.05 206.414C166.36 202.802 169.615 200.177 173.815 198.539V205.406ZM161.404 145.094H205V150.827H172.492L205 165.317V169.349L172.429 183.902H205V189.635H161.404V183.461L197.44 167.333L161.404 151.205V145.094ZM195.235 109.416L195.235 128.568L205 132.096V138.144L161.341 122.268V115.653L205 99.8397V105.888L195.235 109.416ZM190.573 111.054L168.397 118.992L190.573 126.93L190.573 111.054Z" fill="white"/>
</g>
<defs>
<clipPath id="clip0_1_2">
<rect width="1080" height="350" fill="white"/>
</clipPath>
</defs>
</svg>
