<svg width="1080" height="1080" viewBox="0 0 1080 1080" fill="none" xmlns="http://www.w3.org/2000/svg">
<path d="M775.055 481.836H762.677L772.912 451.133H798.082C802.321 451.133 805.758 447.696 805.758 443.457C805.758 439.218 802.321 435.781 798.082 435.781C791.233 435.781 743.744 435.781 736.676 435.781C732.437 435.781 729 439.218 729 443.457C729 447.696 732.437 451.133 736.676 451.133H756.729L746.495 481.836H713.648C696.719 481.836 682.945 495.609 682.945 512.539H681.63C673.888 512.539 667.594 506.245 667.594 498.503C667.594 494.757 669.052 491.231 671.703 488.58C675.842 484.442 678.913 479.524 680.793 474.16H690.621C703.318 474.16 713.648 463.83 713.648 451.133V396.379C713.648 375.217 696.432 358 675.27 358C671.03 358 667.594 361.437 667.594 365.676V461.444C667.594 467.595 665.199 473.377 660.849 477.727C655.297 483.274 652.242 490.653 652.242 498.503C652.242 514.709 665.424 527.891 681.63 527.891H682.945V528.277C682.945 533.885 688.759 537.579 693.825 535.252C703.56 530.78 723.393 527.891 744.352 527.891C765.31 527.891 785.143 530.78 794.878 535.253C799.949 537.583 805.758 533.871 805.758 528.278V512.539C805.758 495.609 791.984 481.836 775.055 481.836Z" fill="white"/>
<path d="M800.191 589.592L752.027 575.832V558.594H759.703C763.94 558.594 767.379 555.155 767.379 550.918V544.521C760.727 543.739 752.933 543.242 744.352 543.242C735.77 543.242 727.977 543.739 721.324 544.521V550.918C721.324 555.155 724.763 558.594 729 558.594H736.676V575.832L688.512 589.593C685.217 590.534 682.945 593.546 682.945 596.973V612.324C682.945 616.563 686.382 620 690.621 620C694.86 620 698.297 616.563 698.297 612.324V602.762L736.676 591.797V612.324C736.676 616.563 740.112 620 744.352 620C748.591 620 752.027 616.563 752.027 612.324V591.797L790.406 602.763V612.324C790.406 616.563 793.843 620 798.082 620C802.321 620 805.758 616.563 805.758 612.324V596.973C805.758 593.546 803.486 590.534 800.191 589.592Z" fill="white"/>
<path d="M218.812 620V473.75H221.344L237.938 514.531V620H218.812ZM218.812 434.938V423.125H234.844L303.469 589.344L355.5 471.781H358.312V513.125L311.062 620H295.875L218.812 434.938ZM371.812 620V423.125H390.938V620H371.812ZM414.281 620V423.125H516.656V441.969H433.406V512.562H490.219V531.406H433.406V601.156H516.656V620H414.281ZM539.156 620V423.125H641.531V441.969H558.281V512.562H615.094V531.406H558.281V601.156H641.531V620H539.156ZM831.656 620V601.719L913.781 441.969H831.656V423.125H934.594V441.125L852.75 600.875H934.875L934.594 620H831.656Z" fill="white"/>
<path d="M205.441 601.226C205.441 604.124 204.937 606.728 203.929 609.038C202.879 611.306 201.451 613.091 199.645 614.393C197.797 615.695 195.676 616.367 193.282 616.409V610.298C195.34 610.088 197.083 609.248 198.511 607.778C199.897 606.266 200.59 604.082 200.59 601.226C200.59 598.496 199.918 596.354 198.574 594.8C197.188 593.204 195.424 592.406 193.282 592.406C191.602 592.406 190.237 592.868 189.187 593.792C188.137 594.716 187.339 595.871 186.793 597.257C186.247 598.643 185.659 600.512 185.029 602.864C184.273 605.762 183.517 608.093 182.761 609.857C182.005 611.579 180.829 613.07 179.233 614.33C177.595 615.548 175.411 616.157 172.681 616.157C170.287 616.157 168.166 615.548 166.318 614.33C164.47 613.112 163.042 611.411 162.034 609.227C161.026 607.001 160.522 604.46 160.522 601.604C160.522 597.488 161.551 594.128 163.609 591.524C165.667 588.878 168.397 587.387 171.799 587.051V593.351C170.119 593.561 168.649 594.443 167.389 595.997C166.087 597.551 165.436 599.609 165.436 602.171C165.436 604.565 166.066 606.518 167.326 608.03C168.544 609.542 170.266 610.298 172.492 610.298C174.088 610.298 175.39 609.857 176.398 608.975C177.406 608.051 178.183 606.938 178.729 605.636C179.233 604.292 179.821 602.423 180.493 600.029C181.291 597.131 182.089 594.8 182.887 593.036C183.643 591.272 184.84 589.76 186.478 588.5C188.074 587.24 190.258 586.61 193.03 586.61C195.172 586.61 197.188 587.177 199.078 588.311C200.968 589.445 202.501 591.125 203.677 593.351C204.853 595.577 205.441 598.202 205.441 601.226ZM161.089 572.44H205V578.173H161.089V572.44ZM173.815 529.406C171.253 530.624 169.279 532.388 167.893 534.698C166.465 537.008 165.751 539.696 165.751 542.762C165.751 545.828 166.465 548.6 167.893 551.078C169.279 553.514 171.295 555.446 173.941 556.874C176.545 558.26 179.569 558.953 183.013 558.953C186.457 558.953 189.481 558.26 192.085 556.874C194.689 555.446 196.705 553.514 198.133 551.078C199.519 548.6 200.212 545.828 200.212 542.762C200.212 538.478 198.931 534.95 196.369 532.178C193.807 529.406 190.342 527.789 185.974 527.327V544.841H181.312V521.216H185.722C189.334 521.552 192.652 522.686 195.676 524.618C198.658 526.55 201.031 529.091 202.795 532.241C204.517 535.391 205.378 538.898 205.378 542.762C205.378 546.836 204.433 550.553 202.543 553.913C200.611 557.273 197.944 559.94 194.542 561.914C191.14 563.846 187.297 564.812 183.013 564.812C178.729 564.812 174.886 563.846 171.484 561.914C168.04 559.94 165.373 557.273 163.483 553.913C161.551 550.553 160.585 546.836 160.585 542.762C160.585 538.1 161.74 533.984 164.05 530.414C166.36 526.802 169.615 524.177 173.815 522.539V529.406ZM161.404 469.094H205V474.827H172.492L205 489.317V493.349L172.429 507.902H205V513.635H161.404V507.461L197.44 491.333L161.404 475.205V469.094ZM195.235 433.416L195.235 452.568L205 456.096V462.144L161.341 446.268V439.653L205 423.84V429.888L195.235 433.416ZM190.573 435.054L168.397 442.992L190.573 450.93L190.573 435.054Z" fill="white"/>
</svg>
